v 0.0 0.0 0.0
v 1.0 0.0 0.0
v 1.0 1.0 0.0
v 0.0 1.0 0.0
v 0.14051303267478943 0.13628867268562317 0.0
v 0.7814881205558777 0.774226725101471 0.0
v 0.06666667014360428 0.0 0.0
v 0.13333334028720856 0.0 0.0
v 0.20000000298023224 0.0 0.0
v 0.2666666805744171 0.0 0.0
v 0.3333333432674408 0.0 0.0
v 0.4000000059604645 0.0 0.0
v 0.46666666865348816 0.0 0.0
v 0.5333333611488342 0.0 0.0
v 0.6000000238418579 0.0 0.0
v 0.6666666865348816 0.0 0.0
v 0.7333333492279053 0.0 0.0
v 0.800000011920929 0.0 0.0
v 0.8666666746139526 0.0 0.0
v 0.9333333373069763 0.0 0.0
v 1.0 0.06666667014360428 0.0
v 1.0 0.13333334028720856 0.0
v 1.0 0.20000000298023224 0.0
v 1.0 0.2666666805744171 0.0
v 1.0 0.3333333432674408 0.0
v 1.0 0.4000000059604645 0.0
v 1.0 0.46666666865348816 0.0
v 1.0 0.5333333611488342 0.0
v 1.0 0.6000000238418579 0.0
v 1.0 0.6666666865348816 0.0
v 1.0 0.7333333492279053 0.0
v 1.0 0.800000011920929 0.0
v 1.0 0.8666666746139526 0.0
v 1.0 0.9333333373069763 0.0
v 0.9333333373069763 1.0 0.0
v 0.8666666746139526 1.0 0.0
v 0.800000011920929 1.0 0.0
v 0.7333333492279053 1.0 0.0
v 0.6666666865348816 1.0 0.0
v 0.6000000238418579 1.0 0.0
v 0.5333333611488342 1.0 0.0
v 0.46666666865348816 1.0 0.0
v 0.4000000059604645 1.0 0.0
v 0.3333333432674408 1.0 0.0
v 0.2666666805744171 1.0 0.0
v 0.20000000298023224 1.0 0.0
v 0.13333334028720856 1.0 0.0
v 0.06666667014360428 1.0 0.0
v 0.0 0.9333333373069763 0.0
v 0.0 0.8666666746139526 0.0
v 0.0 0.800000011920929 0.0
v 0.0 0.7333333492279053 0.0
v 0.0 0.6666666865348816 0.0
v 0.0 0.6000000238418579 0.0
v 0.0 0.5333333611488342 0.0
v 0.0 0.46666666865348816 0.0
v 0.0 0.4000000059604645 0.0
v 0.0 0.3333333432674408 0.0
v 0.0 0.2666666805744171 0.0
v 0.0 0.20000000298023224 0.0
v 0.0 0.13333334028720856 0.0
v 0.0 0.06666667014360428 0.0
v 0.14809153974056244 0.19892531633377075 0.0
v 0.18157050013542175 0.2562388777732849 0.0
v 0.22130756080150604 0.3094612658023834 0.0
v 0.26476821303367615 0.35970163345336914 0.0
v 0.3109159767627716 0.4074907898902893 0.0
v 0.3591587245464325 0.4531673789024353 0.0
v 0.4088343381881714 0.4972851872444153 0.0
v 0.45957449078559875 0.540175199508667 0.0
v 0.5112183690071106 0.5819731950759888 0.0
v 0.5636584758758545 0.622767984867096 0.0
v 0.616828441619873 0.662606954574585 0.0
v 0.6706951856613159 0.7014986872673035 0.0
v 0.7252530455589294 0.7394146919250488 0.0
v 0.2001010924577713 0.15452751517295837 0.0
v 0.25116702914237976 0.19539958238601685 0.0
v 0.29885855317115784 0.24021098017692566 0.0
v 0.3448439836502075 0.2867787778377533 0.0
v 0.38990518450737 0.33424341678619385 0.0
v 0.43449804186820984 0.382148802280426 0.0
v 0.47860440611839294 0.430502325296402 0.0
v 0.5223137140274048 0.4792153239250183 0.0
v 0.5657758712768555 0.5281490087509155 0.0
v 0.6090908646583557 0.5772130489349365 0.0
v 0.6523160934448242 0.6263561844825745 0.0
v 0.6954716444015503 0.6755605340003967 0.0
v 0.7385438680648804 0.7248378396034241 0.0
v 0.5427127480506897 0.41683149337768555 0.0
v 0.396430104970932 0.563997745513916 0.0
v 0.9422504901885986 0.3000974655151367 0.0
v 0.6999476552009583 0.05770280212163925 0.0
v 0.23333333432674408 0.942264974117279 0.0
v 0.05772862583398819 0.6999891400337219 0.0
v 0.6762160062789917 0.5613398551940918 0.0
v 0.433331161737442 0.945183515548706 0.0
v 0.2954809367656708 0.47210782766342163 0.0
v 0.4083137810230255 0.2705734372138977 0.0
v 0.5050148963928223 0.6480017900466919 0.0
v 0.5698422789573669 0.05591297149658203 0.0
v 0.9433663487434387 0.43147513270378113 0.0
v 0.8331816792488098 0.05785650014877319 0.0
v 0.6102825999259949 0.7287558317184448 0.0
v 0.9498555064201355 0.5729280114173889 0.0
v 0.05683574825525284 0.5682116746902466 0.0
v 0.0594978965818882 0.431153804063797 0.0
v 0.05742347985506058 0.8327807784080505 0.0
v 0.5669515132904053 0.9400340914726257 0.0
v 0.43319860100746155 0.05425005406141281 0.0
v 0.7670866250991821 0.6635737419128418 0.0
v 0.7228906154632568 0.8047916293144226 0.0
v 0.9467650055885315 0.7009052634239197 0.0
v 0.8250988721847534 0.9423344135284424 0.0
v 0.9453588128089905 0.17045582830905914 0.0
v 0.947257936000824 0.8296880125999451 0.0
v 0.31295523047447205 0.17678149044513702 0.0
v 0.20023036003112793 0.37289804220199585 0.0
v 0.6992707252502441 0.9420685768127441 0.0
v 0.060015350580215454 0.29354527592658997 0.0
v 0.30000001192092896 0.05773502588272095 0.0
v 0.1061185747385025 0.9396162629127502 0.0
v 0.7805318236351013 0.8377965092658997 0.0
v 0.8375986814498901 0.8125110268592834 0.0
v 0.8414077758789062 0.7420076131820679 0.0
v 0.1864146888256073 0.09854777902364731 0.0
v 0.09184186905622482 0.1806442141532898 0.0
v 0.08343233168125153 0.11062294989824295 0.0
v 0.25952011346817017 0.12189900875091553 0.0
v 0.15985482931137085 0.3235059380531311 0.0
v 0.12491573393344879 0.3884161710739136 0.0
v 0.17770980298519135 0.4363117814064026 0.0
v 0.09749627113342285 0.23712940514087677 0.0
v 0.7266234159469604 0.8786361217498779 0.0
v 0.6647084951400757 0.8339940309524536 0.0
v 0.8953444957733154 0.7908713221549988 0.0
v 0.24478334188461304 0.4227338135242462 0.0
v 0.219594806432724 0.48789286613464355 0.0
v 0.26646512746810913 0.5362482666969299 0.0
v 0.20583288371562958 0.5528739094734192 0.0
v 0.24729925394058228 0.5994972586631775 0.0
v 0.18071986734867096 0.6187834739685059 0.0
v 0.23384541273117065 0.6648494005203247 0.0
v 0.2976885437965393 0.6411819458007812 0.0
v 0.28067490458488464 0.710949182510376 0.0
v 0.22316928207874298 0.7340668439865112 0.0
v 0.34242355823516846 0.6963005661964417 0.0
v 0.32720983028411865 0.7592926025390625 0.0
v 0.38958773016929626 0.744347870349884 0.0
v 0.3730465769767761 0.8065522909164429 0.0
v 0.4319896697998047 0.7928640246391296 0.0
v 0.309892863035202 0.8235313892364502 0.0
v 0.3577941060066223 0.8702940344810486 0.0
v 0.40302518010139465 0.675177276134491 0.0
v 0.16427358984947205 0.5072255730628967 0.0
v 0.29277676343917847 0.8877847790718079 0.0
v 0.24627362191677094 0.8375720977783203 0.0
v 0.3363313376903534 0.5271690487861633 0.0
v 0.3614344596862793 0.2226870357990265 0.0
v 0.42623499035835266 0.20733167231082916 0.0
v 0.47248169779777527 0.2553521990776062 0.0
v 0.4900640845298767 0.19134913384914398 0.0
v 0.5364284515380859 0.23956577479839325 0.0
v 0.558424174785614 0.16739709675312042 0.0
v 0.6004363298416138 0.22330570220947266 0.0
v 0.5821435451507568 0.28676795959472656 0.0
v 0.6462811231613159 0.27097079157829285 0.0
v 0.6699809432029724 0.21627704799175262 0.0
v 0.7104536890983582 0.25502678751945496 0.0
v 0.6921064257621765 0.3186316192150116 0.0
v 0.7563009858131409 0.3027167320251465 0.0
v 0.7379595637321472 0.36630773544311523 0.0
v 0.7783319354057312 0.2349666953086853 0.0
v 0.8026002049446106 0.3494828939437866 0.0
v 0.7812267541885376 0.41302135586738586 0.0
v 0.7192217111587524 0.42965084314346313 0.0
v 0.7648612260818481 0.47724562883377075 0.0
v 0.8343437314033508 0.4533795118331909 0.0
v 0.8118038773536682 0.5236968994140625 0.0
v 0.5050678849220276 0.12746591866016388 0.0
v 0.8723992109298706 0.5093022584915161 0.0
v 0.8526562452316284 0.5714229941368103 0.0
v 0.7906873226165771 0.5899877548217773 0.0
v 0.8347997665405273 0.6359094381332397 0.0
v 0.37846681475639343 0.16138897836208344 0.0
v 0.700026273727417 0.49396494030952454 0.0
v 0.6556272506713867 0.4456644356250763 0.0
v 0.442611426115036 0.14377804100513458 0.0
v 0.7214365601539612 0.6096329689025879 0.0
v 0.4463738799095154 0.6152318120002747 0.0
v 0.6652123332023621 0.7675981521606445 0.0
v 0.6049189567565918 0.7952820062637329 0.0
v 0.5508601665496826 0.7559487223625183 0.0
v 0.5434438586235046 0.8198775053024292 0.0
v 0.6019156575202942 0.8732837438583374 0.0
v 0.5560185313224792 0.688610315322876 0.0
v 0.5024769306182861 0.7151113152503967 0.0
v 0.3432586193084717 0.5963106155395508 0.0
v 0.4537917375564575 0.3190867006778717 0.0
v 0.8364658355712891 0.8826861381530762 0.0
v 0.49864840507507324 0.36768099665641785 0.0
v 0.56276935338974 0.3523649573326111 0.0
v 0.8957764506340027 0.6073065400123596 0.0
v 0.6337921023368835 0.5111175775527954 0.0
v 0.5876412987709045 0.4645116329193115 0.0
v 0.7441718578338623 0.5426446795463562 0.0
v 0.3657780885696411 0.05521726235747337 0.0
v 0.7615953087806702 0.9426158666610718 0.0
v 0.5027653574943542 0.061320655047893524 0.0
v 0.6731933355331421 0.38305386900901794 0.0
v 0.6271234750747681 0.3358486294746399 0.0
v 0.93638676404953 0.5027979612350464 0.0
v 0.6338870525360107 0.057370323687791824 0.0
v 0.6662203073501587 0.1142762303352356 0.0
v 0.7344377636909485 0.11442611366510391 0.0
v 0.6001989245414734 0.11529087275266647 0.0
v 0.7667595148086548 0.05757947638630867 0.0
v 0.7999725341796875 0.11530198901891708 0.0
v 0.8677955865859985 0.11009488254785538 0.0
v 0.8338156938552856 0.17389094829559326 0.0
v 0.8997576832771301 0.056406695395708084 0.0
v 0.9464536309242249 0.8990123271942139 0.0
v 0.9424961805343628 0.3663901388645172 0.0
v 0.888028085231781 0.4056430160999298 0.0
v 0.8732584118843079 0.33843308687210083 0.0
v 0.8842910528182983 0.265010803937912 0.0
v 0.9435409903526306 0.2336832582950592 0.0
v 0.6333943009376526 0.9423002004623413 0.0
v 0.7654874920845032 0.1713029146194458 0.0
v 0.057722706347703934 0.36545199155807495 0.0
v 0.05731620267033577 0.4997054636478424 0.0
v 0.4999869465827942 0.9422724843025208 0.0
v 0.45880788564682007 0.8933501243591309 0.0
v 0.05757319554686546 0.633590817451477 0.0
v 0.11599715799093246 0.6647843718528748 0.0
v 0.11541184782981873 0.7309874296188354 0.0
v 0.11269886791706085 0.5992298722267151 0.0
v 0.05767278000712395 0.7661817669868469 0.0
v 0.11496049165725708 0.8001869320869446 0.0
v 0.1134527251124382 0.8671051263809204 0.0
v 0.1799275428056717 0.8376392722129822 0.0
v 0.17317993938922882 0.8999804258346558 0.0
v 0.3616226613521576 0.9379809498786926 0.0
v 0.5177105069160461 0.30346977710723877 0.0
v 0.2633344829082489 0.7762837409973145 0.0
v 0.8213760852813721 0.28692305088043213 0.0
v 0.6072322130203247 0.40147092938423157 0.0
v 0.5264437794685364 0.8844379186630249 0.0
v 0.3310122489929199 0.11411825567483902 0.0
v 0.2303430438041687 0.05501021817326546 0.0
v 0.11652007699012756 0.46203282475471497 0.0
v 0.8949588537216187 0.9392566084861755 0.0
v 0.054741937667131424 0.8979586362838745 0.0
v 0.937233567237854 0.10549340397119522 0.0
v 0.8839305639266968 0.67674320936203 0.0
v 0.10243220627307892 0.04987677186727524 0.0
v 0.8903273344039917 0.20449736714363098 0.0
v 0.1706518679857254 0.7660535573959351 0.0
v 0.17432452738285065 0.688169002532959 0.0
v 0.29754653573036194 0.953606128692627 0.0
v 0.4154484272003174 0.8494575619697571 0.0
v 0.816312849521637 0.6897355318069458 0.0
v 0.38889533281326294 0.6211820840835571 0.0
v 0.4907940626144409 0.7753409147262573 0.0
v 0.8935893177986145 0.8666666746139526 0.0
v 0.6984720826148987 0.16607575118541718 0.0
v 0.8416284322738647 0.23305776715278625 0.0
v 0.6666719317436218 0.8945092558860779 0.0
v 0.9482048749923706 0.7637476325035095 0.0
v 0.6290820240974426 0.16771775484085083 0.0
v 0.11034394800662994 0.5364352464675903 0.0
v 0.40296584367752075 0.10428912192583084 0.0
v 0.8949048519134521 0.46051958203315735 0.0
v 0.16919304430484772 0.9563723206520081 0.0
v 0.10283555835485458 0.33251112699508667 0.0
v 0.16084422171115875 0.04925205931067467 0.0
v 0.9561230540275574 0.6333333253860474 0.0
v 0.04442397505044937 0.2309320867061615 0.0
v 0.7852455973625183 0.8926559090614319 0.0
v 0.44629108905792236 0.7297202348709106 0.0
v 0.2252350151538849 0.8852632641792297 0.0
v 0.4778212904930115 0.8358880281448364 0.0
v 0.8358914256095886 0.3919919729232788 0.0
v 0.12035450339317322 0.2885861098766327 0.0
v 0.21591176092624664 0.7958518862724304 0.0
v 0.40196824073791504 0.9009979367256165 0.0
v 0.041602279990911484 0.16137292981147766 0.0
v 0.04829060658812523 0.04999702796339989 0.0
v 0.9511966109275818 0.9511966109275818 0.0
v 0.9511375427246094 0.04886244609951973 0.0
v 0.048803385347127914 0.9511966109275818 0.0
v 0.4642794728279114 0.0973045751452446 0.0
v 0.15494047105312347 0.5674077272415161 0.0
v 0.9031305313110352 0.7348549962043762 0.0
v 0.45987290143966675 0.6754800081253052 0.0
v 0.7336410284042358 0.21091949939727783 0.0
v 0.5508099794387817 0.10496987402439117 0.0
v 0.13020120561122894 0.08986706286668777 0.0
v 0.035302817821502686 0.10000000149011612 0.0
v 0.3511427640914917 0.6460954546928406 0.0
v 0.8965853452682495 0.15263399481773376 0.0
v 0.7870953679084778 0.7231894731521606 0.0
v 0.295440137386322 0.578833818435669 0.0
v 0.8998258113861084 0.5515651702880859 0.0
f 199 264 251
f 194 227 108
f 106 229 130
f 199 251 113
f 135 264 123
f 152 242 155
f 242 259 155
f 130 250 106
f 125 249 128
f 235 258 257
f 182 183 110
f 128 249 120
f 173 245 224
f 250 270 230
f 115 264 135
f 64 132 63
f 234 236 141
f 265 269 213
f 239 241 121
f 172 228 219
f 108 247 194
f 133 207 118
f 219 266 172
f 125 128 76
f 167 269 265
f 257 258 145
f 254 276 112
f 120 248 128
f 86 188 87
f 64 283 132
f 202 276 254
f 224 282 173
f 141 258 234
f 247 281 193
f 154 270 250
f 249 275 9
f 185 205 95
f 194 267 227
f 69 157 68
f 110 188 182
f 125 275 249
f 133 278 207
f 241 273 121
f 90 157 69
f 183 261 110
f 84 203 85
f 97 138 137
f 177 282 223
f 95 188 86
f 232 281 247
f 87 188 110
f 224 245 225
f 223 272 177
f 95 205 188
f 189 294 153
f 155 259 93
f 123 264 199
f 153 262 189
f 97 137 136
f 95 203 185
f 124 261 254
f 220 253 218
f 68 157 97
f 209 246 210
f 137 154 131
f 93 280 155
f 84 204 203
f 134 194 191
f 121 252 239
f 85 203 95
f 134 191 190
f 234 258 235
f 117 136 131
f 223 282 224
f 128 248 116
f 194 247 193
f 156 280 240
f 66 136 117
f 210 246 201
f 192 196 195
f 184 187 159
f 165 210 201
f 90 197 157
f 203 204 186
f 253 300 218
f 154 250 131
f 251 264 221
f 106 250 230
f 192 263 196
f 191 194 193
f 158 184 159
f 215 269 163
f 201 243 165
f 132 277 126
f 277 286 126
f 131 250 130
f 134 190 111
f 229 274 130
f 136 137 131
f 161 187 179
f 79 158 98
f 204 246 186
f 186 246 209
f 159 187 161
f 77 128 116
f 97 157 138
f 162 243 160
f 138 139 137
f 158 159 98
f 65 129 64
f 163 296 215
f 192 195 103
f 119 277 132
f 99 189 71
f 240 280 241
f 263 279 196
f 111 190 75
f 103 195 73
f 254 293 124
f 67 136 66
f 160 243 198
f 80 198 81
f 165 243 162
f 78 158 79
f 76 128 77
f 198 200 81
f 188 205 182
f 83 204 84
f 190 191 103
f 135 268 115
f 89 204 83
f 82 200 89
f 71 189 70
f 98 198 80
f 81 200 82
f 138 140 139
f 139 154 137
f 73 195 72
f 74 190 103
f 200 201 89
f 159 160 98
f 200 243 201
f 166 210 165
f 20 220 19
f 178 205 176
f 93 273 241
f 176 205 185
f 109 206 12
f 23 226 114
f 182 205 178
f 169 210 166
f 209 210 169
f 24 226 23
f 118 207 38
f 33 221 115
f 13 208 109
f 212 215 100
f 134 267 194
f 101 223 222
f 102 216 18
f 102 217 216
f 171 209 169
f 15 212 100
f 27 211 101
f 102 218 217
f 160 198 98
f 101 222 26
f 19 220 102
f 11 206 120
f 33 115 32
f 31 112 30
f 11 120 10
f 37 207 113
f 185 203 186
f 37 113 36
f 176 185 175
f 181 182 178
f 92 213 212
f 18 216 17
f 191 192 103
f 222 224 91
f 100 208 14
f 185 186 175
f 174 175 171
f 213 215 212
f 223 224 222
f 140 141 139
f 224 225 91
f 104 211 28
f 219 228 217
f 13 109 12
f 92 212 16
f 108 227 40
f 218 219 217
f 91 226 24
f 6 111 75
f 15 100 14
f 217 228 214
f 198 243 200
f 25 222 91
f 119 229 58
f 174 176 175
f 34 221 33
f 29 104 28
f 75 190 74
f 27 101 26
f 181 183 182
f 39 118 38
f 17 92 16
f 12 206 11
f 39 227 118
f 25 91 24
f 14 208 13
f 38 207 37
f 16 212 15
f 28 211 27
f 92 214 213
f 55 230 105
f 26 222 25
f 105 236 233
f 233 236 234
f 164 165 162
f 59 119 58
f 41 231 108
f 51 237 107
f 235 238 237
f 57 229 106
f 105 233 54
f 237 238 107
f 175 209 171
f 170 171 169
f 96 232 231
f 43 242 96
f 233 234 94
f 106 230 56
f 17 216 92
f 58 229 57
f 52 237 51
f 57 106 56
f 173 174 171
f 146 153 148
f 168 169 166
f 96 231 42
f 41 108 40
f 53 233 94
f 40 227 39
f 55 105 54
f 43 96 42
f 140 142 141
f 53 94 52
f 102 220 218
f 238 240 239
f 140 143 142
f 44 242 43
f 56 230 55
f 238 239 107
f 42 231 41
f 234 235 94
f 54 233 53
f 19 102 18
f 23 114 22
f 143 146 144
f 46 93 45
f 94 237 52
f 51 107 50
f 177 178 176
f 146 148 147
f 48 121 47
f 148 150 149
f 240 241 239
f 191 193 192
f 143 144 142
f 6 124 123
f 186 209 175
f 6 123 122
f 146 147 144
f 155 156 151
f 235 237 94
f 68 97 67
f 70 90 69
f 148 149 147
f 72 99 71
f 74 103 73
f 70 189 90
f 164 166 165
f 72 195 99
f 6 122 111
f 144 145 142
f 66 117 65
f 149 152 151
f 132 283 119
f 97 136 67
f 152 155 151
f 149 151 147
f 216 217 214
f 156 244 151
f 195 196 99
f 117 129 65
f 168 170 169
f 159 161 160
f 170 173 171
f 117 131 130
f 147 244 144
f 144 244 145
f 225 226 91
f 151 244 147
f 180 181 178
f 117 130 129
f 161 162 160
f 174 177 176
f 92 216 214
f 82 89 83
f 167 168 166
f 163 164 162
f 85 95 86
f 168 172 170
f 79 98 80
f 206 248 120
f 164 167 166
f 87 110 88
f 77 116 78
f 181 202 183
f 177 180 178
f 161 163 162
f 161 179 163
f 116 158 78
f 170 245 173
f 172 245 170
f 123 199 122
f 116 184 158
f 124 135 123
f 133 134 111
f 122 133 111
f 89 246 204
f 63 126 5
f 201 246 89
f 206 271 248
f 126 127 5
f 5 125 76
f 10 249 9
f 232 247 231
f 213 269 215
f 63 132 126
f 118 267 133
f 254 261 183
f 36 251 35
f 239 252 107
f 50 252 49
f 225 256 226
f 22 253 21
f 208 296 179
f 235 257 238
f 231 247 108
f 116 248 184
f 142 258 141
f 129 283 64
f 44 259 242
f 93 259 45
f 99 294 189
f 150 260 149
f 248 271 184
f 120 249 10
f 286 298 127
f 126 286 127
f 127 287 255
f 180 272 211
f 113 251 36
f 31 268 112
f 115 268 32
f 214 265 213
f 113 278 199
f 193 281 263
f 107 252 50
f 114 253 22
f 230 270 105
f 163 269 164
f 211 272 101
f 236 292 141
f 202 254 183
f 104 276 202
f 179 296 163
f 207 278 113
f 59 277 119
f 112 276 30
f 9 275 8
f 226 256 114
f 29 276 104
f 46 273 93
f 121 273 47
f 8 255 7
f 150 279 263
f 238 257 240
f 100 296 208
f 153 279 148
f 241 280 93
f 143 302 197
f 96 285 232
f 2 289 20
f 21 289 2
f 3 288 34
f 35 288 3
f 174 282 177
f 202 303 104
f 49 290 4
f 4 290 48
f 244 284 145
f 146 299 153
f 145 258 142
f 110 301 88
f 140 302 143
f 122 278 133
f 181 303 202
f 1 287 62
f 7 287 1
f 167 295 168
f 240 284 156
f 172 266 245
f 127 298 287
f 155 280 156
f 45 259 44
f 149 260 152
f 90 262 197
f 152 285 242
f 189 262 90
f 268 293 112
f 211 303 180
f 225 266 256
f 157 302 138
f 197 302 157
f 145 284 257
f 221 264 115
f 193 263 192
f 177 272 180
f 218 300 219
f 153 294 279
f 179 291 208
f 261 301 110
f 232 285 260
f 104 303 211
f 245 266 225
f 228 265 214
f 133 267 134
f 153 299 262
f 184 271 187
f 227 267 118
f 109 271 206
f 114 300 253
f 32 268 31
f 130 274 129
f 164 269 167
f 265 295 167
f 105 270 236
f 109 291 271
f 124 293 135
f 271 291 187
f 150 281 260
f 219 300 256
f 101 272 223
f 256 266 219
f 139 292 154
f 141 292 139
f 47 273 46
f 119 274 229
f 187 291 179
f 30 276 29
f 60 277 59
f 60 286 277
f 5 297 125
f 135 293 268
f 251 288 35
f 253 289 21
f 252 290 49
f 148 279 150
f 199 278 122
f 173 282 174
f 6 301 124
f 197 299 143
f 20 289 220
f 61 286 60
f 61 298 286
f 242 285 96
f 208 291 109
f 156 284 244
f 34 288 221
f 48 290 121
f 119 283 274
f 127 297 5
f 172 295 228
f 196 294 99
f 260 281 232
f 215 296 100
f 62 298 61
f 168 295 172
f 8 275 255
f 143 299 146
f 138 302 140
f 88 301 6
f 180 303 181
f 221 288 251
f 121 290 252
f 220 289 253
f 257 284 240
f 154 292 270
f 255 297 127
f 279 294 196
f 255 287 7
f 112 293 254
f 260 285 152
f 124 301 261
f 263 281 150
f 125 297 275
f 262 299 197
f 256 300 114
f 270 292 236
f 274 283 129
f 228 295 265
f 287 298 62
f 275 297 255
