# out.obj
#
# This file contains a triangle mesh in Wavefront OBJ format.
# It also includes a tangent vector field, encoded in comment
# lines at the end of the file.  The degree of the field is
# specified by a line of the form
#
#    degree n
#
# where (for instance) n=1 is a unit vector field, n=2 is a
# line field, and n=4 is a cross field.  Individual vectors
# are then specified by lines of the form
#
#    field i x y z
#
# where i is the index of the vertex, and x y z are the three
# components of the tangent vector.  In the case where these
# vectors encode an n-direction field this vector is just one
# of the n possible vectors.  The other vectors can be obtained
# by rotating this one around the corresponding  vertex normal,
# which is given in the usual vn line.  Singularities in the
# field, which are associated with faces, are indicated by lines
#
#    singularity i s
#
# where i is the index of the triangle, and s is the degree of
# the singularity.  All indices are 1-based rather than 0-based.
#
# This field was generated using the fieldgen program:
#
#    https://github.com/GeometryCollective/fieldgen
#

v -0.708275 -0.705936 0
v 0.702205 -0.705936 0
v 0.702205 0.704544 0
v -0.708275 0.704544 0
v -0.510084 -0.513704 0
v 0.393998 0.386095 0
v -0.614243 -0.705936 0
v -0.520211 -0.705936 0
v -0.426179 -0.705936 0
v -0.332147 -0.705936 0
v -0.238115 -0.705936 0
v -0.144083 -0.705936 0
v -0.050051 -0.705936 0
v 0.043981 -0.705936 0
v 0.138013 -0.705936 0
v 0.232045 -0.705936 0
v 0.326077 -0.705936 0
v 0.420109 -0.705936 0
v 0.514141 -0.705936 0
v 0.608173 -0.705936 0
v 0.702205 -0.611904 0
v 0.702205 -0.517872 0
v 0.702205 -0.42384 0
v 0.702205 -0.329808 0
v 0.702205 -0.235776 0
v 0.702205 -0.141744 0
v 0.702205 -0.0477122 0
v 0.702205 0.0463199 0
v 0.702205 0.140352 0
v 0.702205 0.234384 0
v 0.702205 0.328416 0
v 0.702205 0.422448 0
v 0.702205 0.51648 0
v 0.702205 0.610512 0
v 0.608173 0.704544 0
v 0.514141 0.704544 0
v 0.420109 0.704544 0
v 0.326077 0.704544 0
v 0.232045 0.704544 0
v 0.138013 0.704544 0
v 0.043981 0.704544 0
v -0.050051 0.704544 0
v -0.144083 0.704544 0
v -0.238115 0.704544 0
v -0.332147 0.704544 0
v -0.426179 0.704544 0
v -0.520211 0.704544 0
v -0.614243 0.704544 0
v -0.708275 0.610512 0
v -0.708275 0.51648 0
v -0.708275 0.422448 0
v -0.708275 0.328416 0
v -0.708275 0.234384 0
v -0.708275 0.140352 0
v -0.708275 0.0463199 0
v -0.708275 -0.0477122 0
v -0.708275 -0.141744 0
v -0.708275 -0.235776 0
v -0.708275 -0.329808 0
v -0.708275 -0.42384 0
v -0.708275 -0.517872 0
v -0.708275 -0.611904 0
v -0.499395 -0.425356 0
v -0.452174 -0.344516 0
v -0.396125 -0.269447 0
v -0.334825 -0.198584 0
v -0.269734 -0.131179 0
v -0.201689 -0.0667526 0
v -0.131622 -0.00452534 0
v -0.0600544 0.0559702 0
v 0.0127883 0.114925 0
v 0.086754 0.172466 0
v 0.161749 0.228658 0
v 0.237727 0.283514 0
v 0.31468 0.336994 0
v -0.426037 -0.487978 0
v -0.354009 -0.430329 0
v -0.286741 -0.367123 0
v -0.22188 -0.301441 0
v -0.158322 -0.234493 0
v -0.0954242 -0.166923 0
v -0.0332131 -0.0987213 0
v 0.028438 -0.0300125 0
v 0.0897406 0.0390075 0
v 0.150836 0.108211 0
v 0.211804 0.177527 0
v 0.272674 0.246929 0
v 0.333426 0.316433 0
v 0.0572105 -0.118004 0
v -0.149118 0.0895714 0
v 0.620751 -0.282655 0
v 0.278987 -0.624548 0
v -0.379163 0.62311 0
v -0.62685 0.281385 0
v 0.245514 0.0858225 0
v -0.0970701 0.627226 0
v -0.291505 -0.0400375 0
v -0.132357 -0.324298 0
v 0.0040384 0.208057 0
v 0.0954762 -0.627072 0
v 0.622325 -0.0973491 0
v 0.466911 -0.624331 0
v 0.152516 0.321959 0
v 0.631477 0.102167 0
v -0.62811 0.0955151 0
v -0.624355 -0.0978024 0
v -0.627281 0.468685 0
v 0.0913988 0.619963 0
v -0.0972571 -0.629418 0
v 0.373685 0.230021 0
v 0.311348 0.429206 0
v 0.627118 0.282677 0
v 0.455511 0.623208 0
v 0.625135 -0.465512 0
v 0.627814 0.464322 0
v -0.266858 -0.45659 0
v -0.425854 -0.179971 0
v 0.278032 0.622833 0
v -0.623625 -0.291897 0
v -0.285131 -0.624502 0
v -0.558597 0.619374 0
v 0.39265 0.475759 0
v 0.473141 0.440095 0
v 0.478514 0.340651 0
v -0.445341 -0.566937 0
v -0.578734 -0.451141 0
v -0.590596 -0.549905 0
v -0.342227 -0.534 0
v -0.482803 -0.249638 0
v -0.532084 -0.158083 0
v -0.457619 -0.0905271 0
v -0.570759 -0.37147 0
v 0.316613 0.533363 0
v 0.229283 0.470396 0
v 0.554591 0.409572 0
v -0.363013 -0.109679 0
v -0.398541 -0.017773 0
v -0.332431 0.0504313 0
v -0.417952 0.0738815 0
v -0.359464 0.139643 0
v -0.453373 0.166846 0
v -0.378441 0.231821 0
v -0.288391 0.198438 0
v -0.312389 0.296844 0
v -0.393499 0.329451 0
v -0.225294 0.276182 0
v -0.246752 0.365031 0
v -0.158769 0.343952 0
v -0.1821 0.43169 0
v -0.0989623 0.412383 0
v -0.271177 0.455639 0
v -0.203614 0.521596 0
v -0.139816 0.246388 0
v -0.476571 0.00949538 0
v -0.295319 0.546267 0
v -0.360911 0.475443 0
v -0.233886 0.0376253 0
v -0.198479 -0.391841 0
v -0.107079 -0.413499 0
v -0.041849 -0.345767 0
v -0.0170494 -0.436042 0
v 0.0483466 -0.368034 0
v 0.0793711 -0.469826 0
v 0.138628 -0.390968 0
v 0.112827 -0.301456 0
v 0.203292 -0.323737 0
v 0.23672 -0.400882 0
v 0.293806 -0.346226 0
v 0.267927 -0.256513 0
v 0.358473 -0.27896 0
v 0.332602 -0.189266 0
v 0.389547 -0.37452 0
v 0.423777 -0.212998 0
v 0.39363 -0.123378 0
v 0.306173 -0.0999223 0
v 0.370547 -0.0327907 0
v 0.46855 -0.0664534 0
v 0.436758 0.0327279 0
v 0.00411314 -0.526148 0
v 0.522227 0.0124245 0
v 0.49438 0.100045 0
v 0.406974 0.12623 0
v 0.469194 0.191001 0
v -0.174455 -0.4783 0
v 0.279098 -0.00920849 0
v 0.216474 -0.0773354 0
v -0.0839805 -0.50314 0
v 0.309297 0.153939 0
v -0.0786736 0.161836 0
v 0.229994 0.376746 0
v 0.144951 0.415793 0
v 0.0687023 0.360315 0
v 0.0582417 0.450485 0
v 0.140715 0.525813 0
v 0.075978 0.265335 0
v 0.000458649 0.302714 0
v -0.224116 0.135148 0
v -0.0682109 -0.255871 0
v 0.471543 0.539075 0
v -0.00494141 -0.18733 0
v 0.0854999 -0.208932 0
v 0.5552 0.150658 0
v 0.185676 0.014985 0
v 0.120581 -0.0507518 0
v 0.341365 0.0594533 0
v -0.192352 -0.628054 0
v 0.36594 0.623605 0
v 0.00086547 -0.619445 0
v 0.241251 -0.165646 0
v 0.17627 -0.232228 0
v 0.61248 0.00325032 0
v 0.18581 -0.625017 0
v 0.231415 -0.544752 0
v 0.327635 -0.544541 0
v 0.138294 -0.543321 0
v 0.373224 -0.624722 0
v 0.42007 -0.543305 0
v 0.515733 -0.55065 0
v 0.467806 -0.460667 0
v 0.560815 -0.626376 0
v 0.626679 0.562103 0
v 0.621097 -0.18915 0
v 0.544271 -0.133785 0
v 0.523439 -0.228583 0
v 0.539 -0.332144 0
v 0.622571 -0.376331 0
v 0.185115 0.62316 0
v 0.37143 -0.464317 0
v -0.626858 -0.190473 0
v -0.627432 -0.00111159 0
v -0.00305342 0.623121 0
v -0.0611357 0.554117 0
v -0.627069 0.187731 0
v -0.544664 0.231729 0
v -0.545489 0.325107 0
v -0.549316 0.139266 0
v -0.626929 0.374748 0
v -0.546126 0.422712 0
v -0.548252 0.517098 0
v -0.454491 0.475537 0
v -0.464008 0.563468 0
v -0.198214 0.617067 0
v 0.0219453 -0.277898 0
v -0.336847 0.388997 0
v 0.45026 -0.301237 0
v 0.148214 -0.139669 0
v 0.0342634 0.541546 0
v -0.241389 -0.544975 0
v -0.383381 -0.628346 0
v -0.543926 -0.0542481 0
v 0.554047 0.618867 0
v -0.631063 0.560617 0
v 0.613674 -0.55714 0
v 0.538492 0.248597 0
v -0.563797 -0.635586 0
v 0.547514 -0.417497 0
v -0.467574 0.374567 0
v -0.462394 0.264713 0
v -0.288592 0.639106 0
v -0.122293 0.492207 0
v 0.443118 0.266922 0
v -0.159746 0.170229 0
v -0.0160198 0.387667 0
v 0.552115 0.51648 0
v 0.276906 -0.47169 0
v 0.478825 -0.377213 0
v 0.232052 0.555751 0
v 0.629149 0.371315 0
v 0.179033 -0.469374 0
v -0.552637 0.0506951 0
v -0.1399 -0.558839 0
v 0.553971 -0.0563825 0
v -0.469632 0.643008 0
v -0.563228 -0.236936 0
v -0.481408 -0.636467 0
v 0.640318 0.187368 0
v -0.645616 -0.380211 0
v 0.399298 0.553137 0
v -0.0787904 0.32332 0
v -0.390586 0.54271 0
v -0.0343176 0.473067 0
v 0.470733 -0.153039 0
v -0.538518 -0.298891 0
v -0.403736 0.416597 0
v -0.141307 0.564904 0
v -0.649596 -0.478323 0
v -0.640162 -0.635417 0
v 0.633369 0.635708 0
v 0.633286 -0.637017 0
v -0.639439 0.635708 0
v -0.0534181 -0.56869 0
v -0.489735 0.0943811 0
v 0.565573 0.330562 0
v -0.0596335 0.246815 0
v 0.326511 -0.408439 0
v 0.0686315 -0.557878 0
v -0.524629 -0.579181 0
v -0.658481 -0.564888 0
v -0.212995 0.205369 0
v 0.556341 -0.490649 0
v 0.401907 0.314108 0
v -0.291563 0.110497 0
v 0.560911 0.0720355 0
vt 0 0
vn 0 0 1
vn 0 0 1
vn 0 0 1
vn 0 0 1
vn 0 0 1
vn 0 0 1
vn 0 0 1
vn 0 0 1
vn 0 0 1
vn 0 0 1
vn 0 0 1
vn 0 0 1
vn 0 0 1
vn 0 0 1
vn 0 0 1
vn 0 0 1
vn 0 0 1
vn 0 0 1
vn 0 0 1
vn 0 0 1
vn 0 0 1
vn 0 0 1
vn 0 0 1
vn 0 0 1
vn 0 0 1
vn 0 0 1
vn 0 0 1
vn 0 0 1
vn 0 0 1
vn 0 0 1
vn 0 0 1
vn 0 0 1
vn 0 0 1
vn 0 0 1
vn 0 0 1
vn 0 0 1
vn 0 0 1
vn 0 0 1
vn 0 0 1
vn 0 0 1
vn 0 0 1
vn 0 0 1
vn 0 0 1
vn 0 0 1
vn 0 0 1
vn 0 0 1
vn 0 0 1
vn 0 0 1
vn 0 0 1
vn 0 0 1
vn 0 0 1
vn 0 0 1
vn 0 0 1
vn 0 0 1
vn 0 0 1
vn 0 0 1
vn 0 0 1
vn 0 0 1
vn 0 0 1
vn 0 0 1
vn 0 0 1
vn 0 0 1
vn 0 0 1
vn 0 0 1
vn 0 0 1
vn 0 0 1
vn 0 0 1
vn 0 0 1
vn 0 0 1
vn 0 0 1
vn 0 0 1
vn 0 0 1
vn 0 0 1
vn 0 0 1
vn 0 0 1
vn 0 0 1
vn 0 0 1
vn 0 0 1
vn 0 0 1
vn 0 0 1
vn 0 0 1
vn 0 0 1
vn 0 0 1
vn 0 0 1
vn 0 0 1
vn 0 0 1
vn 0 0 1
vn 0 0 1
vn 0 0 1
vn 0 0 1
vn 0 0 1
vn 0 0 1
vn 0 0 1
vn 0 0 1
vn 0 0 1
vn 0 0 1
vn 0 0 1
vn 0 0 1
vn 0 0 1
vn 0 0 1
vn 0 0 1
vn 0 0 1
vn 0 0 1
vn 0 0 1
vn 0 0 1
vn 0 0 1
vn 0 0 1
vn 0 0 1
vn 0 0 1
vn 0 0 1
vn 0 0 1
vn 0 0 1
vn 0 0 1
vn 0 0 1
vn 0 0 1
vn 0 0 1
vn 0 0 1
vn 0 0 1
vn 0 0 1
vn 0 0 1
vn 0 0 1
vn 0 0 1
vn 0 0 1
vn 0 0 1
vn 0 0 1
vn 0 0 1
vn 0 0 1
vn 0 0 1
vn 0 0 1
vn 0 0 1
vn 0 0 1
vn 0 0 1
vn 0 0 1
vn 0 0 1
vn 0 0 1
vn 0 0 1
vn 0 0 1
vn 0 0 1
vn 0 0 1
vn 0 0 1
vn 0 0 1
vn 0 0 1
vn 0 0 1
vn 0 0 1
vn 0 0 1
vn 0 0 1
vn 0 0 1
vn 0 0 1
vn 0 0 1
vn 0 0 1
vn 0 0 1
vn 0 0 1
vn 0 0 1
vn 0 0 1
vn 0 0 1
vn 0 0 1
vn 0 0 1
vn 0 0 1
vn 0 0 1
vn 0 0 1
vn 0 0 1
vn 0 0 1
vn 0 0 1
vn 0 0 1
vn 0 0 1
vn 0 0 1
vn 0 0 1
vn 0 0 1
vn 0 0 1
vn 0 0 1
vn 0 0 1
vn 0 0 1
vn 0 0 1
vn 0 0 1
vn 0 0 1
vn 0 0 1
vn 0 0 1
vn 0 0 1
vn 0 0 1
vn 0 0 1
vn 0 0 1
vn 0 0 1
vn 0 0 1
vn 0 0 1
vn 0 0 1
vn 0 0 1
vn 0 0 1
vn 0 0 1
vn 0 0 1
vn 0 0 1
vn 0 0 1
vn 0 0 1
vn 0 0 1
vn 0 0 1
vn 0 0 1
vn 0 0 1
vn 0 0 1
vn 0 0 1
vn 0 0 1
vn 0 0 1
vn 0 0 1
vn 0 0 1
vn 0 0 1
vn 0 0 1
vn 0 0 1
vn 0 0 1
vn 0 0 1
vn 0 0 1
vn 0 0 1
vn 0 0 1
vn 0 0 1
vn 0 0 1
vn 0 0 1
vn 0 0 1
vn 0 0 1
vn 0 0 1
vn 0 0 1
vn 0 0 1
vn 0 0 1
vn 0 0 1
vn 0 0 1
vn 0 0 1
vn 0 0 1
vn 0 0 1
vn 0 0 1
vn 0 0 1
vn 0 0 1
vn 0 0 1
vn 0 0 1
vn 0 0 1
vn 0 0 1
vn 0 0 1
vn 0 0 1
vn 0 0 1
vn 0 0 1
vn 0 0 1
vn 0 0 1
vn 0 0 1
vn 0 0 1
vn 0 0 1
vn 0 0 1
vn 0 0 1
vn 0 0 1
vn 0 0 1
vn 0 0 1
vn 0 0 1
vn 0 0 1
vn 0 0 1
vn 0 0 1
vn 0 0 1
vn 0 0 1
vn 0 0 1
vn 0 0 1
vn 0 0 1
vn 0 0 1
vn 0 0 1
vn 0 0 1
vn 0 0 1
vn 0 0 1
vn 0 0 1
vn 0 0 1
vn 0 0 1
vn 0 0 1
vn 0 0 1
vn 0 0 1
vn 0 0 1
vn 0 0 1
vn 0 0 1
vn 0 0 1
vn 0 0 1
vn 0 0 1
vn 0 0 1
vn 0 0 1
vn 0 0 1
vn 0 0 1
vn 0 0 1
vn 0 0 1
vn 0 0 1
vn 0 0 1
vn 0 0 1
vn 0 0 1
vn 0 0 1
vn 0 0 1
vn 0 0 1
vn 0 0 1
vn 0 0 1
vn 0 0 1
vn 0 0 1
vn 0 0 1
vn 0 0 1
vn 0 0 1
vn 0 0 1
vn 0 0 1
vn 0 0 1
vn 0 0 1
vn 0 0 1
vn 0 0 1
vn 0 0 1
vn 0 0 1
vn 0 0 1
vn 0 0 1
vn 0 0 1
vn 0 0 1
f 251/1/251 199/1/199 264/1/264 
f 108/1/108 194/1/194 227/1/227 
f 130/1/130 106/1/106 229/1/229 
f 113/1/113 199/1/199 251/1/251 
f 123/1/123 135/1/135 264/1/264 
f 155/1/155 152/1/152 242/1/242 
f 155/1/155 242/1/242 259/1/259 
f 106/1/106 130/1/130 250/1/250 
f 128/1/128 125/1/125 249/1/249 
f 257/1/257 235/1/235 258/1/258 
f 110/1/110 182/1/182 183/1/183 
f 120/1/120 128/1/128 249/1/249 
f 224/1/224 173/1/173 245/1/245 
f 230/1/230 250/1/250 270/1/270 
f 135/1/135 115/1/115 264/1/264 
f 63/1/63 64/1/64 132/1/132 
f 141/1/141 234/1/234 236/1/236 
f 213/1/213 265/1/265 269/1/269 
f 121/1/121 239/1/239 241/1/241 
f 219/1/219 172/1/172 228/1/228 
f 194/1/194 108/1/108 247/1/247 
f 118/1/118 133/1/133 207/1/207 
f 172/1/172 219/1/219 266/1/266 
f 76/1/76 125/1/125 128/1/128 
f 265/1/265 167/1/167 269/1/269 
f 145/1/145 257/1/257 258/1/258 
f 112/1/112 254/1/254 276/1/276 
f 128/1/128 120/1/120 248/1/248 
f 87/1/87 86/1/86 188/1/188 
f 132/1/132 64/1/64 283/1/283 
f 254/1/254 202/1/202 276/1/276 
f 173/1/173 224/1/224 282/1/282 
f 234/1/234 141/1/141 258/1/258 
f 193/1/193 247/1/247 281/1/281 
f 250/1/250 154/1/154 270/1/270 
f 9/1/9 249/1/249 275/1/275 
f 95/1/95 185/1/185 205/1/205 
f 227/1/227 194/1/194 267/1/267 
f 68/1/68 69/1/69 157/1/157 
f 182/1/182 110/1/110 188/1/188 
f 249/1/249 125/1/125 275/1/275 
f 207/1/207 133/1/133 278/1/278 
f 121/1/121 241/1/241 273/1/273 
f 69/1/69 90/1/90 157/1/157 
f 110/1/110 183/1/183 261/1/261 
f 85/1/85 84/1/84 203/1/203 
f 137/1/137 97/1/97 138/1/138 
f 223/1/223 177/1/177 282/1/282 
f 86/1/86 95/1/95 188/1/188 
f 247/1/247 232/1/232 281/1/281 
f 110/1/110 87/1/87 188/1/188 
f 225/1/225 224/1/224 245/1/245 
f 177/1/177 223/1/223 272/1/272 
f 188/1/188 95/1/95 205/1/205 
f 153/1/153 189/1/189 294/1/294 
f 93/1/93 155/1/155 259/1/259 
f 199/1/199 123/1/123 264/1/264 
f 189/1/189 153/1/153 262/1/262 
f 136/1/136 97/1/97 137/1/137 
f 185/1/185 95/1/95 203/1/203 
f 254/1/254 124/1/124 261/1/261 
f 218/1/218 220/1/220 253/1/253 
f 97/1/97 68/1/68 157/1/157 
f 210/1/210 209/1/209 246/1/246 
f 131/1/131 137/1/137 154/1/154 
f 155/1/155 93/1/93 280/1/280 
f 203/1/203 84/1/84 204/1/204 
f 191/1/191 134/1/134 194/1/194 
f 239/1/239 121/1/121 252/1/252 
f 95/1/95 85/1/85 203/1/203 
f 190/1/190 134/1/134 191/1/191 
f 235/1/235 234/1/234 258/1/258 
f 131/1/131 117/1/117 136/1/136 
f 224/1/224 223/1/223 282/1/282 
f 116/1/116 128/1/128 248/1/248 
f 193/1/193 194/1/194 247/1/247 
f 240/1/240 156/1/156 280/1/280 
f 117/1/117 66/1/66 136/1/136 
f 201/1/201 210/1/210 246/1/246 
f 195/1/195 192/1/192 196/1/196 
f 159/1/159 184/1/184 187/1/187 
f 201/1/201 165/1/165 210/1/210 
f 157/1/157 90/1/90 197/1/197 
f 186/1/186 203/1/203 204/1/204 
f 218/1/218 253/1/253 300/1/300 
f 131/1/131 154/1/154 250/1/250 
f 221/1/221 251/1/251 264/1/264 
f 230/1/230 106/1/106 250/1/250 
f 196/1/196 192/1/192 263/1/263 
f 193/1/193 191/1/191 194/1/194 
f 159/1/159 158/1/158 184/1/184 
f 163/1/163 215/1/215 269/1/269 
f 165/1/165 201/1/201 243/1/243 
f 126/1/126 132/1/132 277/1/277 
f 126/1/126 277/1/277 286/1/286 
f 130/1/130 131/1/131 250/1/250 
f 111/1/111 134/1/134 190/1/190 
f 130/1/130 229/1/229 274/1/274 
f 131/1/131 136/1/136 137/1/137 
f 179/1/179 161/1/161 187/1/187 
f 98/1/98 79/1/79 158/1/158 
f 186/1/186 204/1/204 246/1/246 
f 209/1/209 186/1/186 246/1/246 
f 161/1/161 159/1/159 187/1/187 
f 116/1/116 77/1/77 128/1/128 
f 138/1/138 97/1/97 157/1/157 
f 160/1/160 162/1/162 243/1/243 
f 137/1/137 138/1/138 139/1/139 
f 98/1/98 158/1/158 159/1/159 
f 64/1/64 65/1/65 129/1/129 
f 215/1/215 163/1/163 296/1/296 
f 103/1/103 192/1/192 195/1/195 
f 132/1/132 119/1/119 277/1/277 
f 71/1/71 99/1/99 189/1/189 
f 241/1/241 240/1/240 280/1/280 
f 196/1/196 263/1/263 279/1/279 
f 75/1/75 111/1/111 190/1/190 
f 73/1/73 103/1/103 195/1/195 
f 124/1/124 254/1/254 293/1/293 
f 66/1/66 67/1/67 136/1/136 
f 198/1/198 160/1/160 243/1/243 
f 81/1/81 80/1/80 198/1/198 
f 162/1/162 165/1/165 243/1/243 
f 79/1/79 78/1/78 158/1/158 
f 77/1/77 76/1/76 128/1/128 
f 81/1/81 198/1/198 200/1/200 
f 182/1/182 188/1/188 205/1/205 
f 84/1/84 83/1/83 204/1/204 
f 103/1/103 190/1/190 191/1/191 
f 115/1/115 135/1/135 268/1/268 
f 83/1/83 89/1/89 204/1/204 
f 89/1/89 82/1/82 200/1/200 
f 70/1/70 71/1/71 189/1/189 
f 80/1/80 98/1/98 198/1/198 
f 82/1/82 81/1/81 200/1/200 
f 139/1/139 138/1/138 140/1/140 
f 137/1/137 139/1/139 154/1/154 
f 72/1/72 73/1/73 195/1/195 
f 103/1/103 74/1/74 190/1/190 
f 89/1/89 200/1/200 201/1/201 
f 98/1/98 159/1/159 160/1/160 
f 201/1/201 200/1/200 243/1/243 
f 165/1/165 166/1/166 210/1/210 
f 19/1/19 20/1/20 220/1/220 
f 176/1/176 178/1/178 205/1/205 
f 241/1/241 93/1/93 273/1/273 
f 185/1/185 176/1/176 205/1/205 
f 12/1/12 109/1/109 206/1/206 
f 114/1/114 23/1/23 226/1/226 
f 178/1/178 182/1/182 205/1/205 
f 166/1/166 169/1/169 210/1/210 
f 169/1/169 209/1/209 210/1/210 
f 23/1/23 24/1/24 226/1/226 
f 38/1/38 118/1/118 207/1/207 
f 115/1/115 33/1/33 221/1/221 
f 109/1/109 13/1/13 208/1/208 
f 100/1/100 212/1/212 215/1/215 
f 194/1/194 134/1/134 267/1/267 
f 222/1/222 101/1/101 223/1/223 
f 18/1/18 102/1/102 216/1/216 
f 216/1/216 102/1/102 217/1/217 
f 169/1/169 171/1/171 209/1/209 
f 100/1/100 15/1/15 212/1/212 
f 101/1/101 27/1/27 211/1/211 
f 217/1/217 102/1/102 218/1/218 
f 98/1/98 160/1/160 198/1/198 
f 26/1/26 101/1/101 222/1/222 
f 102/1/102 19/1/19 220/1/220 
f 120/1/120 11/1/11 206/1/206 
f 32/1/32 33/1/33 115/1/115 
f 30/1/30 31/1/31 112/1/112 
f 10/1/10 11/1/11 120/1/120 
f 113/1/113 37/1/37 207/1/207 
f 186/1/186 185/1/185 203/1/203 
f 36/1/36 37/1/37 113/1/113 
f 175/1/175 176/1/176 185/1/185 
f 178/1/178 181/1/181 182/1/182 
f 212/1/212 92/1/92 213/1/213 
f 17/1/17 18/1/18 216/1/216 
f 103/1/103 191/1/191 192/1/192 
f 91/1/91 222/1/222 224/1/224 
f 14/1/14 100/1/100 208/1/208 
f 175/1/175 185/1/185 186/1/186 
f 171/1/171 174/1/174 175/1/175 
f 212/1/212 213/1/213 215/1/215 
f 222/1/222 223/1/223 224/1/224 
f 139/1/139 140/1/140 141/1/141 
f 91/1/91 224/1/224 225/1/225 
f 28/1/28 104/1/104 211/1/211 
f 217/1/217 219/1/219 228/1/228 
f 12/1/12 13/1/13 109/1/109 
f 16/1/16 92/1/92 212/1/212 
f 40/1/40 108/1/108 227/1/227 
f 217/1/217 218/1/218 219/1/219 
f 24/1/24 91/1/91 226/1/226 
f 75/1/75 6/1/6 111/1/111 
f 14/1/14 15/1/15 100/1/100 
f 214/1/214 217/1/217 228/1/228 
f 200/1/200 198/1/198 243/1/243 
f 91/1/91 25/1/25 222/1/222 
f 58/1/58 119/1/119 229/1/229 
f 175/1/175 174/1/174 176/1/176 
f 33/1/33 34/1/34 221/1/221 
f 28/1/28 29/1/29 104/1/104 
f 74/1/74 75/1/75 190/1/190 
f 26/1/26 27/1/27 101/1/101 
f 182/1/182 181/1/181 183/1/183 
f 38/1/38 39/1/39 118/1/118 
f 16/1/16 17/1/17 92/1/92 
f 11/1/11 12/1/12 206/1/206 
f 118/1/118 39/1/39 227/1/227 
f 24/1/24 25/1/25 91/1/91 
f 13/1/13 14/1/14 208/1/208 
f 37/1/37 38/1/38 207/1/207 
f 15/1/15 16/1/16 212/1/212 
f 27/1/27 28/1/28 211/1/211 
f 213/1/213 92/1/92 214/1/214 
f 105/1/105 55/1/55 230/1/230 
f 25/1/25 26/1/26 222/1/222 
f 233/1/233 105/1/105 236/1/236 
f 234/1/234 233/1/233 236/1/236 
f 162/1/162 164/1/164 165/1/165 
f 58/1/58 59/1/59 119/1/119 
f 108/1/108 41/1/41 231/1/231 
f 107/1/107 51/1/51 237/1/237 
f 237/1/237 235/1/235 238/1/238 
f 106/1/106 57/1/57 229/1/229 
f 54/1/54 105/1/105 233/1/233 
f 107/1/107 237/1/237 238/1/238 
f 171/1/171 175/1/175 209/1/209 
f 169/1/169 170/1/170 171/1/171 
f 231/1/231 96/1/96 232/1/232 
f 96/1/96 43/1/43 242/1/242 
f 94/1/94 233/1/233 234/1/234 
f 56/1/56 106/1/106 230/1/230 
f 92/1/92 17/1/17 216/1/216 
f 57/1/57 58/1/58 229/1/229 
f 51/1/51 52/1/52 237/1/237 
f 56/1/56 57/1/57 106/1/106 
f 171/1/171 173/1/173 174/1/174 
f 148/1/148 146/1/146 153/1/153 
f 166/1/166 168/1/168 169/1/169 
f 42/1/42 96/1/96 231/1/231 
f 40/1/40 41/1/41 108/1/108 
f 94/1/94 53/1/53 233/1/233 
f 39/1/39 40/1/40 227/1/227 
f 54/1/54 55/1/55 105/1/105 
f 42/1/42 43/1/43 96/1/96 
f 141/1/141 140/1/140 142/1/142 
f 52/1/52 53/1/53 94/1/94 
f 218/1/218 102/1/102 220/1/220 
f 239/1/239 238/1/238 240/1/240 
f 142/1/142 140/1/140 143/1/143 
f 43/1/43 44/1/44 242/1/242 
f 55/1/55 56/1/56 230/1/230 
f 107/1/107 238/1/238 239/1/239 
f 41/1/41 42/1/42 231/1/231 
f 94/1/94 234/1/234 235/1/235 
f 53/1/53 54/1/54 233/1/233 
f 18/1/18 19/1/19 102/1/102 
f 22/1/22 23/1/23 114/1/114 
f 144/1/144 143/1/143 146/1/146 
f 45/1/45 46/1/46 93/1/93 
f 52/1/52 94/1/94 237/1/237 
f 50/1/50 51/1/51 107/1/107 
f 176/1/176 177/1/177 178/1/178 
f 147/1/147 146/1/146 148/1/148 
f 47/1/47 48/1/48 121/1/121 
f 149/1/149 148/1/148 150/1/150 
f 239/1/239 240/1/240 241/1/241 
f 192/1/192 191/1/191 193/1/193 
f 142/1/142 143/1/143 144/1/144 
f 123/1/123 6/1/6 124/1/124 
f 175/1/175 186/1/186 209/1/209 
f 122/1/122 6/1/6 123/1/123 
f 144/1/144 146/1/146 147/1/147 
f 151/1/151 155/1/155 156/1/156 
f 94/1/94 235/1/235 237/1/237 
f 67/1/67 68/1/68 97/1/97 
f 69/1/69 70/1/70 90/1/90 
f 147/1/147 148/1/148 149/1/149 
f 71/1/71 72/1/72 99/1/99 
f 73/1/73 74/1/74 103/1/103 
f 90/1/90 70/1/70 189/1/189 
f 165/1/165 164/1/164 166/1/166 
f 99/1/99 72/1/72 195/1/195 
f 111/1/111 6/1/6 122/1/122 
f 142/1/142 144/1/144 145/1/145 
f 65/1/65 66/1/66 117/1/117 
f 151/1/151 149/1/149 152/1/152 
f 119/1/119 132/1/132 283/1/283 
f 67/1/67 97/1/97 136/1/136 
f 151/1/151 152/1/152 155/1/155 
f 147/1/147 149/1/149 151/1/151 
f 214/1/214 216/1/216 217/1/217 
f 151/1/151 156/1/156 244/1/244 
f 99/1/99 195/1/195 196/1/196 
f 65/1/65 117/1/117 129/1/129 
f 169/1/169 168/1/168 170/1/170 
f 160/1/160 159/1/159 161/1/161 
f 171/1/171 170/1/170 173/1/173 
f 130/1/130 117/1/117 131/1/131 
f 144/1/144 147/1/147 244/1/244 
f 145/1/145 144/1/144 244/1/244 
f 91/1/91 225/1/225 226/1/226 
f 147/1/147 151/1/151 244/1/244 
f 178/1/178 180/1/180 181/1/181 
f 129/1/129 117/1/117 130/1/130 
f 160/1/160 161/1/161 162/1/162 
f 176/1/176 174/1/174 177/1/177 
f 214/1/214 92/1/92 216/1/216 
f 83/1/83 82/1/82 89/1/89 
f 166/1/166 167/1/167 168/1/168 
f 162/1/162 163/1/163 164/1/164 
f 86/1/86 85/1/85 95/1/95 
f 170/1/170 168/1/168 172/1/172 
f 80/1/80 79/1/79 98/1/98 
f 120/1/120 206/1/206 248/1/248 
f 166/1/166 164/1/164 167/1/167 
f 88/1/88 87/1/87 110/1/110 
f 78/1/78 77/1/77 116/1/116 
f 183/1/183 181/1/181 202/1/202 
f 178/1/178 177/1/177 180/1/180 
f 162/1/162 161/1/161 163/1/163 
f 163/1/163 161/1/161 179/1/179 
f 78/1/78 116/1/116 158/1/158 
f 173/1/173 170/1/170 245/1/245 
f 170/1/170 172/1/172 245/1/245 
f 122/1/122 123/1/123 199/1/199 
f 158/1/158 116/1/116 184/1/184 
f 123/1/123 124/1/124 135/1/135 
f 111/1/111 133/1/133 134/1/134 
f 111/1/111 122/1/122 133/1/133 
f 204/1/204 89/1/89 246/1/246 
f 5/1/5 63/1/63 126/1/126 
f 89/1/89 201/1/201 246/1/246 
f 248/1/248 206/1/206 271/1/271 
f 5/1/5 126/1/126 127/1/127 
f 76/1/76 5/1/5 125/1/125 
f 9/1/9 10/1/10 249/1/249 
f 231/1/231 232/1/232 247/1/247 
f 215/1/215 213/1/213 269/1/269 
f 126/1/126 63/1/63 132/1/132 
f 133/1/133 118/1/118 267/1/267 
f 183/1/183 254/1/254 261/1/261 
f 35/1/35 36/1/36 251/1/251 
f 107/1/107 239/1/239 252/1/252 
f 49/1/49 50/1/50 252/1/252 
f 226/1/226 225/1/225 256/1/256 
f 21/1/21 22/1/22 253/1/253 
f 179/1/179 208/1/208 296/1/296 
f 238/1/238 235/1/235 257/1/257 
f 108/1/108 231/1/231 247/1/247 
f 184/1/184 116/1/116 248/1/248 
f 141/1/141 142/1/142 258/1/258 
f 64/1/64 129/1/129 283/1/283 
f 242/1/242 44/1/44 259/1/259 
f 45/1/45 93/1/93 259/1/259 
f 189/1/189 99/1/99 294/1/294 
f 149/1/149 150/1/150 260/1/260 
f 184/1/184 248/1/248 271/1/271 
f 10/1/10 120/1/120 249/1/249 
f 127/1/127 286/1/286 298/1/298 
f 127/1/127 126/1/126 286/1/286 
f 255/1/255 127/1/127 287/1/287 
f 211/1/211 180/1/180 272/1/272 
f 36/1/36 113/1/113 251/1/251 
f 112/1/112 31/1/31 268/1/268 
f 32/1/32 115/1/115 268/1/268 
f 213/1/213 214/1/214 265/1/265 
f 199/1/199 113/1/113 278/1/278 
f 263/1/263 193/1/193 281/1/281 
f 50/1/50 107/1/107 252/1/252 
f 22/1/22 114/1/114 253/1/253 
f 105/1/105 230/1/230 270/1/270 
f 164/1/164 163/1/163 269/1/269 
f 101/1/101 211/1/211 272/1/272 
f 141/1/141 236/1/236 292/1/292 
f 183/1/183 202/1/202 254/1/254 
f 202/1/202 104/1/104 276/1/276 
f 163/1/163 179/1/179 296/1/296 
f 113/1/113 207/1/207 278/1/278 
f 119/1/119 59/1/59 277/1/277 
f 30/1/30 112/1/112 276/1/276 
f 8/1/8 9/1/9 275/1/275 
f 114/1/114 226/1/226 256/1/256 
f 104/1/104 29/1/29 276/1/276 
f 93/1/93 46/1/46 273/1/273 
f 47/1/47 121/1/121 273/1/273 
f 7/1/7 8/1/8 255/1/255 
f 263/1/263 150/1/150 279/1/279 
f 240/1/240 238/1/238 257/1/257 
f 208/1/208 100/1/100 296/1/296 
f 148/1/148 153/1/153 279/1/279 
f 93/1/93 241/1/241 280/1/280 
f 197/1/197 143/1/143 302/1/302 
f 232/1/232 96/1/96 285/1/285 
f 20/1/20 2/1/2 289/1/289 
f 2/1/2 21/1/21 289/1/289 
f 34/1/34 3/1/3 288/1/288 
f 3/1/3 35/1/35 288/1/288 
f 177/1/177 174/1/174 282/1/282 
f 104/1/104 202/1/202 303/1/303 
f 4/1/4 49/1/49 290/1/290 
f 48/1/48 4/1/4 290/1/290 
f 145/1/145 244/1/244 284/1/284 
f 153/1/153 146/1/146 299/1/299 
f 142/1/142 145/1/145 258/1/258 
f 88/1/88 110/1/110 301/1/301 
f 143/1/143 140/1/140 302/1/302 
f 133/1/133 122/1/122 278/1/278 
f 202/1/202 181/1/181 303/1/303 
f 62/1/62 1/1/1 287/1/287 
f 1/1/1 7/1/7 287/1/287 
f 168/1/168 167/1/167 295/1/295 
f 156/1/156 240/1/240 284/1/284 
f 245/1/245 172/1/172 266/1/266 
f 287/1/287 127/1/127 298/1/298 
f 156/1/156 155/1/155 280/1/280 
f 44/1/44 45/1/45 259/1/259 
f 152/1/152 149/1/149 260/1/260 
f 197/1/197 90/1/90 262/1/262 
f 242/1/242 152/1/152 285/1/285 
f 90/1/90 189/1/189 262/1/262 
f 112/1/112 268/1/268 293/1/293 
f 180/1/180 211/1/211 303/1/303 
f 256/1/256 225/1/225 266/1/266 
f 138/1/138 157/1/157 302/1/302 
f 157/1/157 197/1/197 302/1/302 
f 257/1/257 145/1/145 284/1/284 
f 115/1/115 221/1/221 264/1/264 
f 192/1/192 193/1/193 263/1/263 
f 180/1/180 177/1/177 272/1/272 
f 219/1/219 218/1/218 300/1/300 
f 279/1/279 153/1/153 294/1/294 
f 208/1/208 179/1/179 291/1/291 
f 110/1/110 261/1/261 301/1/301 
f 260/1/260 232/1/232 285/1/285 
f 211/1/211 104/1/104 303/1/303 
f 225/1/225 245/1/245 266/1/266 
f 214/1/214 228/1/228 265/1/265 
f 134/1/134 133/1/133 267/1/267 
f 262/1/262 153/1/153 299/1/299 
f 187/1/187 184/1/184 271/1/271 
f 118/1/118 227/1/227 267/1/267 
f 206/1/206 109/1/109 271/1/271 
f 253/1/253 114/1/114 300/1/300 
f 31/1/31 32/1/32 268/1/268 
f 129/1/129 130/1/130 274/1/274 
f 167/1/167 164/1/164 269/1/269 
f 167/1/167 265/1/265 295/1/295 
f 236/1/236 105/1/105 270/1/270 
f 271/1/271 109/1/109 291/1/291 
f 135/1/135 124/1/124 293/1/293 
f 187/1/187 271/1/271 291/1/291 
f 260/1/260 150/1/150 281/1/281 
f 256/1/256 219/1/219 300/1/300 
f 223/1/223 101/1/101 272/1/272 
f 219/1/219 256/1/256 266/1/266 
f 154/1/154 139/1/139 292/1/292 
f 139/1/139 141/1/141 292/1/292 
f 46/1/46 47/1/47 273/1/273 
f 229/1/229 119/1/119 274/1/274 
f 179/1/179 187/1/187 291/1/291 
f 29/1/29 30/1/30 276/1/276 
f 59/1/59 60/1/60 277/1/277 
f 277/1/277 60/1/60 286/1/286 
f 125/1/125 5/1/5 297/1/297 
f 268/1/268 135/1/135 293/1/293 
f 35/1/35 251/1/251 288/1/288 
f 21/1/21 253/1/253 289/1/289 
f 49/1/49 252/1/252 290/1/290 
f 150/1/150 148/1/148 279/1/279 
f 122/1/122 199/1/199 278/1/278 
f 174/1/174 173/1/173 282/1/282 
f 124/1/124 6/1/6 301/1/301 
f 143/1/143 197/1/197 299/1/299 
f 220/1/220 20/1/20 289/1/289 
f 60/1/60 61/1/61 286/1/286 
f 286/1/286 61/1/61 298/1/298 
f 96/1/96 242/1/242 285/1/285 
f 109/1/109 208/1/208 291/1/291 
f 244/1/244 156/1/156 284/1/284 
f 221/1/221 34/1/34 288/1/288 
f 121/1/121 48/1/48 290/1/290 
f 274/1/274 119/1/119 283/1/283 
f 5/1/5 127/1/127 297/1/297 
f 228/1/228 172/1/172 295/1/295 
f 99/1/99 196/1/196 294/1/294 
f 232/1/232 260/1/260 281/1/281 
f 100/1/100 215/1/215 296/1/296 
f 61/1/61 62/1/62 298/1/298 
f 172/1/172 168/1/168 295/1/295 
f 255/1/255 8/1/8 275/1/275 
f 146/1/146 143/1/143 299/1/299 
f 140/1/140 138/1/138 302/1/302 
f 6/1/6 88/1/88 301/1/301 
f 181/1/181 180/1/180 303/1/303 
f 251/1/251 221/1/221 288/1/288 
f 252/1/252 121/1/121 290/1/290 
f 253/1/253 220/1/220 289/1/289 
f 240/1/240 257/1/257 284/1/284 
f 270/1/270 154/1/154 292/1/292 
f 127/1/127 255/1/255 297/1/297 
f 196/1/196 279/1/279 294/1/294 
f 7/1/7 255/1/255 287/1/287 
f 254/1/254 112/1/112 293/1/293 
f 152/1/152 260/1/260 285/1/285 
f 261/1/261 124/1/124 301/1/301 
f 150/1/150 263/1/263 281/1/281 
f 275/1/275 125/1/125 297/1/297 
f 197/1/197 262/1/262 299/1/299 
f 114/1/114 256/1/256 300/1/300 
f 236/1/236 270/1/270 292/1/292 
f 129/1/129 274/1/274 283/1/283 
f 265/1/265 228/1/228 295/1/295 
f 62/1/62 287/1/287 298/1/298 
f 255/1/255 275/1/275 297/1/297 
# degree 4
# field 1 0.707107 0.707107 0
# field 2 -0.707107 0.707107 0
# field 3 -0.707107 -0.707107 0
# field 4 0.707107 -0.707107 0
# field 5 0.641987 0.766715 0
# field 6 -0.76181 -0.647801 0
# field 7 1 -6.12323e-17 0
# field 8 1 -6.12323e-17 0
# field 9 1 -6.12323e-17 0
# field 10 1 -6.12323e-17 0
# field 11 1 -6.12323e-17 0
# field 12 1 -6.12323e-17 0
# field 13 1 -6.12323e-17 0
# field 14 1 -6.12323e-17 0
# field 15 1 3.82857e-16 0
# field 16 1 -6.12323e-17 0
# field 17 1 -6.12323e-17 0
# field 18 1 -6.12323e-17 0
# field 19 1 -6.12323e-17 0
# field 20 1 -6.12323e-17 0
# field 21 6.12323e-17 1 0
# field 22 6.12323e-17 1 0
# field 23 6.12323e-17 1 0
# field 24 6.12323e-17 1 0
# field 25 6.12323e-17 1 0
# field 26 6.12323e-17 1 0
# field 27 6.12323e-17 1 0
# field 28 6.12323e-17 1 0
# field 29 6.12323e-17 1 0
# field 30 6.12323e-17 1 0
# field 31 6.12323e-17 1 0
# field 32 -1.60812e-16 1 0
# field 33 -1.60812e-16 1 0
# field 34 -1.60812e-16 1 0
# field 35 -1 6.12323e-17 0
# field 36 -1 -1.60812e-16 0
# field 37 -1 6.12323e-17 0
# field 38 -1 6.12323e-17 0
# field 39 -1 6.12323e-17 0
# field 40 -1 6.12323e-17 0
# field 41 -1 6.12323e-17 0
# field 42 -1 6.12323e-17 0
# field 43 -1 6.12323e-17 0
# field 44 -1 6.12323e-17 0
# field 45 -1 -1.60812e-16 0
# field 46 -1 6.12323e-17 0
# field 47 -1 6.12323e-17 0
# field 48 -1 6.12323e-17 0
# field 49 -6.12323e-17 -1 0
# field 50 -6.12323e-17 -1 0
# field 51 1.60812e-16 -1 0
# field 52 -6.12323e-17 -1 0
# field 53 -6.12323e-17 -1 0
# field 54 -6.12323e-17 -1 0
# field 55 1.60812e-16 -1 0
# field 56 -6.12323e-17 -1 0
# field 57 1.60812e-16 -1 0
# field 58 -6.12323e-17 -1 0
# field 59 -6.12323e-17 -1 0
# field 60 1.60812e-16 -1 0
# field 61 -6.12323e-17 -1 0
# field 62 -6.12323e-17 -1 0
# field 63 0.318873 0.947798 0
# field 64 0.552204 0.833709 0
# field 65 0.626655 0.779297 0
# field 66 0.674692 0.738099 0
# field 67 0.710579 0.703618 0
# field 68 0.737019 0.675872 0
# field 69 0.75576 0.654848 0
# field 70 0.770555 0.637373 0
# field 71 0.783339 0.621595 0
# field 72 0.794818 0.606847 0
# field 73 0.805553 0.592524 0
# field 74 0.816 0.578052 0
# field 75 0.836011 0.548712 0
# field 76 -0.884209 -0.467092 0
# field 77 -0.755341 -0.655332 0
# field 78 -0.715832 -0.698273 0
# field 79 -0.695609 -0.718421 0
# field 80 -0.684935 -0.728604 0
# field 81 -0.67764 -0.735394 0
# field 82 -0.670886 -0.74156 0
# field 83 -0.66596 -0.745987 0
# field 84 -0.662946 -0.748667 0
# field 85 -0.661135 -0.750267 0
# field 86 -0.659917 -0.751338 0
# field 87 -0.658748 -0.752363 0
# field 88 -0.657134 -0.753773 0
# field 89 0.748213 -0.663459 0
# field 90 0.77257 0.63493 0
# field 91 -0.999991 0.00428779 0
# field 92 0.999995 -0.00317132 0
# field 93 -0.99998 -0.00638315 0
# field 94 0.99999 0.00439843 0
# field 95 -0.757419 0.65293 0
# field 96 -0.999864 -0.0165033 0
# field 97 -0.726164 -0.687521 0
# field 98 -0.723542 0.690281 0
# field 99 -0.596549 0.802576 0
# field 100 0.00268376 0.999996 0
# field 101 -0.999978 0.00656401 0
# field 102 -0.00195731 -0.999998 0
# field 103 0.557392 -0.83025 0
# field 104 -0.999983 0.00581267 0
# field 105 1 0.000360556 0
# field 106 -0.99978 0.0209888 0
# field 107 -0.00338054 0.999994 0
# field 108 -0.999557 -0.0297751 0
# field 109 0.999991 0.00420526 0
# field 110 0.660679 0.750668 0
# field 111 0.845753 0.533575 0
# field 112 -0.999998 -0.00190393 0
# field 113 -0.999827 -0.0185955 0
# field 114 -0.999998 0.00203509 0
# field 115 -0.0092309 0.999957 0
# field 116 0.656288 -0.75451 0
# field 117 -0.778269 0.627931 0
# field 118 -0.999451 -0.0331377 0
# field 119 0.996737 -0.080717 0
# field 120 -0.999204 -0.0398805 0
# field 121 -0.999997 -0.00257907 0
# field 122 0.899166 0.437607 0
# field 123 0.304926 -0.952376 0
# field 124 -0.787563 -0.616235 0
# field 125 -0.916875 -0.399174 0
# field 126 -0.967632 0.252365 0
# field 127 -0.116909 -0.993143 0
# field 128 -0.45225 0.891891 0
# field 129 -0.843414 0.537264 0
# field 130 -0.216551 -0.976271 0
# field 131 -0.581381 -0.813632 0
# field 132 -0.239198 -0.970971 0
# field 133 -0.987452 -0.157922 0
# field 134 0.928351 0.371706 0
# field 135 0.0380598 -0.999275 0
# field 136 0.72728 -0.686341 0
# field 137 -0.708906 0.705303 0
# field 138 0.758242 0.651973 0
# field 139 -0.160424 0.987048 0
# field 140 0.351445 -0.936208 0
# field 141 0.0399059 -0.999203 0
# field 142 -0.0907399 0.995875 0
# field 143 0.898975 0.437999 0
# field 144 -0.120819 0.992675 0
# field 145 -0.0454559 0.998966 0
# field 146 -0.933922 -0.357477 0
# field 147 -0.119196 0.992871 0
# field 148 0.957126 0.289672 0
# field 149 0.995094 0.098932 0
# field 150 0.97992 0.199393 0
# field 151 -0.998817 -0.0486249 0
# field 152 0.999239 0.0390017 0
# field 153 -0.839691 -0.543065 0
# field 154 0.0243958 0.999702 0
# field 155 -0.999778 -0.0210642 0
# field 156 0.0257522 -0.999668 0
# field 157 0.75472 0.656047 0
# field 158 -0.711754 -0.702429 0
# field 159 0.717911 -0.696135 0
# field 160 0.739223 -0.673461 0
# field 161 -0.25164 -0.967821 0
# field 162 -0.573194 -0.81942 0
# field 163 -0.999548 0.0300646 0
# field 164 -0.088599 -0.996067 0
# field 165 0.805701 -0.592322 0
# field 166 -0.147006 -0.989136 0
# field 167 -0.0376848 -0.99929 0
# field 168 -0.0449561 -0.998989 0
# field 169 -0.171488 -0.985186 0
# field 170 -0.0471985 -0.998886 0
# field 171 -0.148982 -0.98884 0
# field 172 -0.999805 0.0197582 0
# field 173 0.0401183 0.999195 0
# field 174 -0.108658 -0.994079 0
# field 175 -0.844129 0.536141 0
# field 176 -0.434329 -0.900754 0
# field 177 0.998642 -0.0521015 0
# field 178 -0.191597 -0.981474 0
# field 179 -0.999961 0.00885382 0
# field 180 0.0328265 0.999461 0
# field 181 -0.0713539 -0.997451 0
# field 182 0.802299 -0.596922 0
# field 183 0.911913 -0.410383 0
# field 184 0.638458 -0.769657 0
# field 185 -0.630843 -0.77591 0
# field 186 0.769922 -0.638139 0
# field 187 0.00759105 -0.999971 0
# field 188 0.758004 -0.652249 0
# field 189 -0.791773 -0.610815 0
# field 190 0.53435 -0.845263 0
# field 191 -0.451404 0.89232 0
# field 192 -0.50198 0.864879 0
# field 193 -0.961901 -0.2734 0
# field 194 0.990737 0.135796 0
# field 195 -0.577685 0.81626 0
# field 196 -0.540895 0.84109 0
# field 197 0.791178 0.611586 0
# field 198 0.734886 -0.678191 0
# field 199 -0.998538 -0.0540504 0
# field 200 -0.669816 -0.742527 0
# field 201 0.653633 0.756812 0
# field 202 -0.999798 0.0201067 0
# field 203 0.755834 -0.654763 0
# field 204 -0.658597 -0.752496 0
# field 205 0.783512 -0.621377 0
# field 206 0.999875 0.0158339 0
# field 207 0.0273398 -0.999626 0
# field 208 -1 0.000867608 0
# field 209 0.575637 0.817706 0
# field 210 0.805471 -0.592636 0
# field 211 0.00867236 0.999962 0
# field 212 -0.00330635 -0.999995 0
# field 213 0.99996 -0.00893744 0
# field 214 0.00726844 0.999974 0
# field 215 -0.999951 0.00988325 0
# field 216 0.00263958 0.999997 0
# field 217 -0.999985 0.0054379 0
# field 218 0.00327482 0.999995 0
# field 219 0.99997 -0.00769698 0
# field 220 0.999999 -0.00120763 0
# field 221 -0.00697353 0.999976 0
# field 222 0.999985 -0.00553879 0
# field 223 0.999863 -0.01658 0
# field 224 -0.0150792 -0.999886 0
# field 225 -0.999961 0.00883839 0
# field 226 -0.999995 0.00306018 0
# field 227 0.0325229 -0.999471 0
# field 228 0.0120227 0.999928 0
# field 229 -0.0434949 -0.999054 0
# field 230 0.999979 -0.00653679 0
# field 231 0.0228557 -0.999739 0
# field 232 -0.998806 -0.0488586 0
# field 233 -0.999994 -0.00336765 0
# field 234 -0.0122664 0.999925 0
# field 235 0.999932 0.0116797 0
# field 236 0.00816866 -0.999967 0
# field 237 0.00422285 -0.999991 0
# field 238 0.999956 0.00937274 0
# field 239 -0.99998 -0.006273 0
# field 240 0.0148618 -0.99989 0
# field 241 0.999968 0.00802021 0
# field 242 0.999898 0.0142561 0
# field 243 -0.749681 0.6618 0
# field 244 -0.051078 0.998695 0
# field 245 -0.0202703 -0.999795 0
# field 246 -0.762422 0.647081 0
# field 247 -0.0784822 0.996916 0
# field 248 0.981351 0.192223 0
# field 249 0.0546471 -0.998506 0
# field 250 -0.0448946 -0.998992 0
# field 251 0.999953 0.0096602 0
# field 252 0.999998 0.00213762 0
# field 253 -0.00145576 -0.999999 0
# field 254 0.99995 -0.00998033 0
# field 255 0.999855 -0.0170235 0
# field 256 -0.00574815 -0.999983 0
# field 257 0.999784 0.0207752 0
# field 258 0.999554 0.0298503 0
# field 259 -0.00721398 0.999974 0
# field 260 -0.0745694 0.997216 0
# field 261 0.684625 0.728895 0
# field 262 -0.600973 0.799269 0
# field 263 -0.378047 0.925786 0
# field 264 0.999656 0.0262412 0
# field 265 0.99987 -0.0161384 0
# field 266 -0.0113944 -0.999935 0
# field 267 -0.103999 0.994577 0
# field 268 -0.999974 -0.00725078 0
# field 269 0.0226595 0.999743 0
# field 270 0.999996 -0.0028871 0
# field 271 0.999684 0.0251343 0
# field 272 -0.0181897 -0.999835 0
# field 273 -0.00309717 0.999995 0
# field 274 -0.204363 -0.978895 0
# field 275 -0.0144183 0.999896 0
# field 276 0.999996 -0.00294336 0
# field 277 -0.997852 0.0655151 0
# field 278 0.0813819 -0.996683 0
# field 279 0.467315 -0.884091 0
# field 280 0.0138777 -0.999904 0
# field 281 -0.990399 -0.138241 0
# field 282 -0.999423 0.0339562 0
# field 283 0.365444 0.930833 0
# field 284 -0.0276879 0.999617 0
# field 285 -0.999471 -0.0325073 0
# field 286 -0.998619 0.0525273 0
# field 287 0.0104759 0.999945 0
# field 288 -0.999994 -0.00357056 0
# field 289 0.000600809 1 0
# field 290 0.00107502 -0.999999 0
# field 291 0.0018957 -0.999998 0
# field 292 -0.999863 -0.0165307 0
# field 293 0.0178649 -0.99984 0
# field 294 0.821294 0.570505 0
# field 295 -0.0220951 -0.999756 0
# field 296 -0.0072809 -0.999973 0
# field 297 -0.265074 -0.964228 0
# field 298 -0.999803 0.0198262 0
# field 299 0.548658 -0.836047 0
# field 300 0.999993 -0.00369214 0
# field 301 0.710162 -0.704038 0
# field 302 -0.611242 0.791444 0
# field 303 -0.999802 0.0199071 0
# singularity 61 0.25
# singularity 81 -0.25
# singularity 137 -0.25
# singularity 401 0.25
# singularity 404 0.25
# singularity 405 -0.25
# singularity 468 0.25
